<?xml version="1.0" standalone="no"?>
<!DOCTYPE svg PUBLIC "-//W3C//DTD SVG 20010904//EN"
 "http://www.w3.org/TR/2001/REC-SVG-20010904/DTD/svg10.dtd">
<svg version="1.0" xmlns="http://www.w3.org/2000/svg"
 width="512.000000pt" height="512.000000pt" viewBox="0 0 512.000000 512.000000"
 preserveAspectRatio="xMidYMid meet">
<metadata>
Created by potrace 1.14, written by Peter Selinger 2001-2017
</metadata>
<g transform="translate(0.000000,512.000000) scale(0.100000,-0.100000)"
fill="#000000" stroke="none">
<path d="M2545 5090 c-97 -39 -394 -156 -485 -190 -41 -16 -178 -69 -305 -118
-126 -49 -399 -155 -606 -236 -207 -80 -381 -146 -387 -146 -13 0 -19 -13
-147 -325 -59 -143 -113 -273 -120 -290 -7 -16 -59 -142 -115 -280 -56 -137
-108 -263 -115 -280 -22 -51 -160 -384 -214 -516 l-52 -127 64 -143 c36 -79
77 -170 91 -202 50 -109 79 -175 287 -635 115 -254 224 -495 242 -535 19 -40
57 -124 85 -187 l52 -115 453 -182 c248 -100 676 -272 949 -382 l498 -201 167
64 c265 101 926 355 948 365 11 5 47 18 80 31 33 12 69 25 80 30 11 4 47 18
80 30 33 12 68 26 78 31 10 5 22 7 27 4 6 -4 10 -1 10 5 0 6 5 8 10 5 6 -3 10
-1 10 6 0 7 8 9 21 6 12 -3 18 -3 15 1 -4 3 13 13 36 22 263 101 298 116 298
132 0 9 -4 18 -9 20 -22 8 -150 132 -142 138 6 3 31 55 57 115 25 61 54 128
65 151 10 22 27 63 37 90 11 27 31 74 44 104 14 30 38 85 53 122 16 38 32 65
38 61 6 -3 7 -1 4 4 -4 6 1 28 10 49 9 22 17 41 18 44 1 3 8 19 15 35 7 17 12
34 11 39 -1 5 9 6 23 4 14 -3 23 -1 20 3 -3 5 -11 9 -19 9 -11 0 -9 11 8 52
12 29 25 55 29 56 5 2 6 8 2 13 -3 5 3 9 13 10 10 0 13 3 6 5 -11 5 -8 19 26
99 5 11 21 49 36 85 15 36 33 79 41 95 7 17 25 59 39 95 15 36 33 79 40 95 32
72 75 178 75 185 0 7 -76 185 -131 305 -10 22 -19 47 -21 55 -2 8 -5 17 -8 20
-5 5 -33 61 -35 70 0 3 -13 32 -28 64 -15 33 -25 66 -23 73 3 7 2 12 -2 10 -4
-1 -8 3 -10 8 -2 6 -12 24 -23 41 -23 38 -25 56 -3 28 14 -18 15 -18 4 4 -6
12 -15 22 -19 22 -5 0 -11 6 -14 14 -6 15 9 16 33 2 12 -7 13 -7 2 5 -7 8 -17
15 -22 15 -6 1 -15 2 -21 3 -6 0 -8 8 -5 17 3 8 2 12 -4 9 -6 -3 -10 -1 -10 5
0 7 -13 40 -29 74 -16 33 -36 78 -46 98 -9 20 -13 42 -9 49 4 7 3 9 -3 6 -6
-4 -60 107 -128 261 -103 234 -161 363 -171 383 -2 3 32 42 76 86 44 44 80 86
80 92 0 7 -17 19 -37 27 -93 38 -112 48 -106 57 4 6 1 7 -6 3 -11 -7 -35 1
-136 44 -11 4 -45 18 -75 30 -30 11 -64 25 -75 30 -53 24 -170 70 -177 70 -4
0 -31 11 -60 24 -29 13 -244 101 -478 196 -234 95 -438 178 -455 185 -73 33
-312 125 -321 124 -5 0 -40 -14 -79 -29z m302 -1271 c109 -44 333 -135 498
-201 165 -66 305 -126 311 -134 16 -21 24 -18 66 23 23 22 41 33 46 28 5 -6
28 -55 52 -110 48 -113 82 -189 112 -255 45 -97 56 -128 51 -134 -4 -3 -2 -6
4 -6 9 0 23 -27 38 -70 1 -3 20 -45 43 -94 23 -49 42 -90 42 -92 0 -2 12 -29
26 -61 95 -209 91 -173 27 -325 -30 -73 -66 -160 -80 -193 -14 -32 -32 -65
-41 -73 -10 -7 -11 -10 -4 -7 10 5 10 0 -1 -27 -32 -74 -42 -94 -57 -106 -8
-8 -9 -11 -3 -7 9 4 11 1 7 -9 -3 -9 -11 -13 -17 -9 -6 3 -7 1 -3 -6 9 -13 -2
-53 -13 -47 -4 3 -7 -3 -8 -12 -2 -28 -12 -63 -21 -76 -5 -6 -15 -27 -22 -46
-7 -19 -22 -55 -33 -80 -10 -25 -26 -61 -34 -80 -27 -65 -51 -105 -65 -108 -8
-1 -32 15 -54 36 l-40 39 -264 -102 c-146 -56 -366 -141 -489 -188 l-223 -87
-67 26 c-36 14 -79 32 -96 39 -16 7 -183 74 -370 150 -187 75 -353 142 -369
148 -110 45 -99 29 -221 302 -61 138 -156 347 -209 465 -54 118 -98 224 -98
235 0 16 82 223 147 370 7 17 46 109 85 205 40 96 76 184 81 195 4 11 23 56
41 100 l33 79 250 98 c138 53 250 98 250 98 0 1 7 3 15 5 8 2 69 25 135 51
107 42 337 132 342 133 1 1 91 -35 200 -80z"/>
<path d="M3946 2118 c3 -5 10 -6 15 -3 13 9 11 12 -6 12 -8 0 -12 -4 -9 -9z"/>
<path d="M3984 2078 l-19 -23 23 19 c12 11 22 21 22 23 0 8 -8 2 -26 -19z"/>
<path d="M3936 2062 c-3 -5 1 -9 9 -9 8 0 12 4 9 9 -3 4 -7 8 -9 8 -2 0 -6 -4
-9 -8z"/>
<path d="M3990 2039 c0 -5 5 -7 10 -4 6 3 10 8 10 11 0 2 -4 4 -10 4 -5 0 -10
-5 -10 -11z"/>
<path d="M3934 1969 c-3 -6 -2 -15 3 -20 5 -5 9 -1 9 11 0 23 -2 24 -12 9z"/>
<path d="M3915 1870 c-4 -6 -11 -7 -17 -4 -7 4 -8 2 -4 -5 6 -9 11 -9 22 0 14
11 18 19 10 19 -3 0 -8 -5 -11 -10z"/>
<path d="M4810 3300 c0 -5 5 -10 11 -10 5 0 7 5 4 10 -3 6 -8 10 -11 10 -2 0
-4 -4 -4 -10z"/>
<path d="M4830 1791 c0 -6 4 -13 10 -16 6 -3 7 1 4 9 -7 18 -14 21 -14 7z"/>
<path d="M4815 1739 c-4 -5 2 -6 11 -2 12 4 15 3 10 -5 -10 -16 -1 -15 12 1 8
10 6 13 -8 14 -11 1 -22 -2 -25 -8z"/>
<path d="M4790 1680 c-9 -6 -10 -10 -3 -10 6 0 15 5 18 10 8 12 4 12 -15 0z"/>
<path d="M4775 1640 c-3 -6 1 -7 9 -4 18 7 21 14 7 14 -6 0 -13 -4 -16 -10z"/>
<path d="M4873 1633 c0 -9 4 -10 14 -2 7 6 13 12 13 14 0 1 -6 2 -13 2 -8 0
-14 -6 -14 -14z"/>
<path d="M4785 1620 c-3 -6 1 -7 9 -4 18 7 21 14 7 14 -6 0 -13 -4 -16 -10z"/>
<path d="M4755 1582 c3 -3 0 -10 -5 -17 -7 -8 -5 -12 5 -12 8 0 13 3 10 5 -3
3 0 10 5 17 7 8 5 12 -5 12 -8 0 -13 -3 -10 -5z"/>
<path d="M4830 1556 c0 -2 8 -10 18 -17 15 -13 16 -12 3 4 -13 16 -21 21 -21
13z"/>
<path d="M4753 1525 c0 -8 4 -12 9 -9 5 3 6 10 3 15 -9 13 -12 11 -12 -6z"/>
</g>
</svg>
