<svg width="64" height="64" xmlns="http://www.w3.org/2000/svg" version="1.1" xml:space="preserve">
 <g>
  <title>Layer 1</title>
  <g id="svg_1">
   <circle class="st0" cx="32" cy="32" r="32" fill="#4F5D73" id="svg_2"/>
  </g>
  <path stroke="null" id="svg_4" fill="#B0DACC" d="m52.71568,12.25944l-27.72342,0c-1.05213,0 -1.90524,0.85301 -1.90524,1.90514l0,6.53484l13.86176,0c1.05213,0 1.90514,0.85301 1.90514,1.90524l0,11.20282l0.17422,0l8.3268,7.76324c0.74169,0.69149 1.94772,0.12451 1.88844,-0.88787l-0.40263,-6.87556l3.87473,0c1.05213,0 1.90514,-0.85301 1.90514,-1.90514l0,-17.73757c0.0002,-1.05223 -0.85282,-1.90514 -1.90495,-1.90514z"/>
  <path stroke="null" id="svg_6" fill="#666666" d="m48.11361,43.2246c-0.62118,0 -1.21717,-0.23681 -1.67868,-0.66698l-8.0145,-7.47203c-0.53241,-0.18056 -0.9158,-0.68466 -0.9158,-1.2782l0,-11.20282c0,-0.30644 -0.24931,-0.55595 -0.55595,-0.55595l-13.86156,0c-0.7452,0 -1.34929,-0.60409 -1.34929,-1.34929l0,-6.53474c0,-1.7946 1.45993,-3.25443 3.25443,-3.25443l27.72332,0c1.7945,0 3.25443,1.45993 3.25443,3.25443l0,17.73767c0,1.7945 -1.45993,3.25443 -3.25443,3.25443l-2.44419,0l0.31894,5.44736c0.04033,0.68885 -0.19482,1.34109 -0.6622,1.83669c-0.46972,0.49814 -1.13113,0.78387 -1.81452,0.78387zm-7.91031,-10.16632l7.66031,7.14176l-0.36972,-6.31375c-0.02168,-0.37089 0.11054,-0.73426 0.36542,-1.00467c0.25498,-0.27031 0.61005,-0.42353 0.98162,-0.42353l3.87473,0c0.30644,0 0.55595,-0.24931 0.55595,-0.55595l0,-17.73757c0,-0.30644 -0.24931,-0.55595 -0.55595,-0.55595l-27.72342,0c-0.30654,0 -0.55595,0.24931 -0.55595,0.55595l0,5.18555l12.51247,0c1.7945,0 3.25443,1.45993 3.25443,3.25443l0,10.45372l0.0001,0z"/>
  <path stroke="null" id="svg_3" fill="#FFAAB8" d="m13.82322,51.664c-0.35673,0 -0.71678,-0.07773 -1.05584,-0.2372c-0.9201,-0.43261 -1.47615,-1.36775 -1.41677,-2.38287l0.31894,-5.44736l-2.4441,0c-1.7945,0 -3.25443,-1.45984 -3.25443,-3.25443l0,-17.73767c0,-1.7946 1.45993,-3.25443 3.25443,-3.25443l27.72332,0c1.7946,0 3.25443,1.45993 3.25443,3.25443l0,17.73767c0,1.7945 -1.45993,3.25443 -3.25443,3.25443l-3.06616,0c-0.7452,0 -1.34929,-0.60409 -1.34929,-1.34929s0.60409,-1.34929 1.34929,-1.34929l3.06625,0c0.30654,0 0.55595,-0.24931 0.55595,-0.55595l0,-17.73757c0,-0.30654 -0.24931,-0.55595 -0.55595,-0.55595l-27.72342,0c-0.30644,0 -0.55595,0.24931 -0.55595,0.55595l0,17.73767c0,0.30644 0.24931,0.55595 0.55595,0.55595l3.87473,0c0.37148,0 0.72655,0.15312 0.98162,0.42353c0.25488,0.27031 0.3871,0.63378 0.36542,1.00467l-0.36972,6.31385l7.91529,-7.37965c0.2499,-0.23291 0.5786,-0.3624 0.9201,-0.3624l4.75148,0c0.7452,0 1.34929,0.60409 1.34929,1.34929s-0.60409,1.34929 -1.34929,1.34929l-4.22014,0l-7.93823,7.40094c-0.46943,0.43779 -1.07137,0.66639 -1.68278,0.66639z"/>
  <path stroke="null" id="svg_7" fill="#FFAAB8" d="m30.97056,29.76606l-16.19141,0c-0.7452,0 -1.34929,-0.60409 -1.34929,-1.34929c0,-0.7452 0.60409,-1.34929 1.34929,-1.34929l16.19141,0c0.7452,0 1.34929,0.60409 1.34929,1.34929c0,0.7452 -0.60409,1.34929 -1.34929,1.34929z"/>
  <path stroke="null" id="svg_8" fill="#FFAAB8" d="m28.83408,36.68468l-11.91863,0c-0.7452,0 -1.34929,-0.60409 -1.34929,-1.34929c0,-0.7452 0.60409,-1.34929 1.34929,-1.34929l11.91863,0c0.7452,0 1.34929,0.60409 1.34929,1.34929c0,0.7452 -0.60409,1.34929 -1.34929,1.34929z"/>
 </g>

</svg>