<svg width="1000" height="1000" xmlns="http://www.w3.org/2000/svg">
 <g>
  <title>background</title>
  <rect x="-1" y="-1" width="1002" height="1002" id="canvas_background" fill="none"/>
 </g>

 <g>
  <title>Layer 1</title>
  <g id="svg_1">
   <path d="m437.7,599.6c-0.4,1.1 -2.6,1 -6.8,-0.3c-4.2,-1.3 -9.9,-3.4 -17.2,-6.3l-11,-4.9c-16.1,-7.3 -31.9,-16.2 -47.6,-26.8c-2.5,-1.8 -10,-7.6 -22.4,-17.2c-12.4,-9.7 -19.3,-14.9 -20.8,-15.6c-24.4,37.5 -48.9,70.5 -73.3,99c-29.5,34.6 -48.7,54.7 -57.4,60.2c-1.5,0.7 -5,1.5 -10.7,2.2c-5.6,0.7 -9,0.7 -10.1,0c2.2,-1.5 17.1,-18.2 44.8,-50.3c7.7,-8.8 23.2,-29.7 46.8,-62.9c23.5,-33.2 37.8,-54.7 42.9,-64.5c6.2,-10.9 15.5,-28.9 27.9,-53.9c12.4,-25 18.9,-39.1 19.7,-42.4c-2.9,-0.4 -23,5.6 -60.2,18.1c-2.9,0.7 -7.9,2.1 -15.1,4.1c-7.1,2 -13.4,3.7 -18.9,5.2c-5.5,1.4 -8.6,2.4 -9.3,2.7c-0.7,0.7 -1.1,2.6 -1.1,5.7c0,3.1 -0.2,4.8 -0.6,5.2c-1.8,3.6 -7.5,6.4 -16.9,8.2c-8.4,2.5 -16.9,2.5 -25.7,0c-6.6,-1.5 -11.7,-5.3 -15.3,-11.5c-1.5,-2.2 -2.4,-6.4 -2.7,-12.6c2.2,-0.7 6.7,-1.6 13.4,-2.7c6.7,-1.1 12.1,-2.2 16.1,-3.3c21.1,-5.8 40.3,-11.7 57.4,-17.5c36.5,-12.8 55.1,-19.1 55.8,-19.1c3.6,-0.7 11.5,-4.3 23.5,-10.7c12,-6.4 20.1,-10.3 24.1,-11.8c3.3,-1.1 7.2,-2.6 11.8,-4.4c4.6,-1.8 7.2,-2.8 7.9,-3c0.7,-0.2 1.8,-0.1 3.3,0.3c0.7,4.4 0.5,10.4 -0.6,18.1c0,0.7 -2.3,5.6 -6.8,14.8c-4.6,9.1 -9.4,18.9 -14.5,29.3s-8.2,16.5 -9.3,18.3c-9.1,18.2 -23.2,42.1 -42.1,71.6l35,15.3c4.4,2.2 17.9,8 40.7,17.5c22.8,9.5 35.1,14.6 36.9,15.3c1.5,0.4 3.4,5 5.7,13.9c2.6,8.9 3.4,14.4 2.7,16.7zm-112.1,-265.8c1.1,5.5 0.4,10.6 -2.2,15.3c-4.4,8.4 -13.5,15.3 -27.3,20.8c-10.9,4.4 -21.9,6.5 -32.8,6.5c-9.5,-1.1 -18.4,-5.8 -26.8,-14.2c-5.1,-5.5 -8.4,-12.9 -9.8,-22.4l0.6,-1.6c1.1,1.1 4.7,2 10.7,2.7c6,0.7 10.9,0.7 14.5,0c3.6,-0.7 14.2,-3.6 31.7,-8.8c13.1,-4.4 23.1,-6.9 30.1,-7.7c5.9,0.1 9.8,3.2 11.3,9.4l0,0zm381.7,70.5l34.4,124.1l-76,-23l41.6,-101.1zm-606,437.5l379.6,-126.8l0,-564.4l-379.6,127.4l0,563.8zm678.7,-173.3l55.8,16.9l-99,-359.3l-54.7,-16.9l-118.1,293.1l55.8,16.9l24.6,-60.2l115.4,35.6l20.2,73.9zm-275.1,-526.2l313.4,100.7l0,-207.9l-313.4,107.2zm170.1,723.6l86.4,7.1l-29.5,87.5l-21.9,-36.1c-47.4,30.3 -97.7,49.9 -150.9,59c-21.1,4.4 -37.7,6.5 -49.8,6.5l-46,0c-28.8,0 -65.2,-7.1 -109.1,-21.3c-43.9,-14.2 -77.4,-29.7 -100.3,-46.5c-2.9,-2.5 -4.4,-5.5 -4.4,-8.8c0,-2.9 0.9,-5.4 2.7,-7.4c1.8,-2 4.2,-3 7.1,-3c1.5,0 4.7,1.4 9.8,4.1c5.1,2.7 10.7,5.7 16.7,9c6,3.3 9.8,5.3 11.2,6c26.6,13.5 55.7,24.7 87.2,33.6c31.5,8.9 60.2,13.4 86.1,13.4c34.6,0 65.1,-2.6 91.3,-7.9c26.3,-5.3 54.9,-14.5 85.9,-27.6c5.5,-2.5 11,-5.4 16.7,-8.5s11.9,-6.6 18.6,-10.4c6.7,-3.8 11.9,-6.8 15.6,-9l-23.4,-39.7zm245,-590.1l0,590.1l-423.3,-134.6c-5.1,2.2 -73.5,25.4 -205.1,69.7c-131.6,44.4 -198.7,66.5 -201.2,66.5c-4.7,0 -8,-2.4 -9.8,-7.1c0,-0.4 -0.2,-0.9 -0.6,-1.6l0,-589.6c1.1,-3.3 1.8,-5.1 2.2,-5.5c1.8,-2.2 5.5,-4.2 11,-6c38.6,-12.8 65.8,-21.9 81.5,-27.3l0,-210l305.2,108.3c0.7,0 30,-10 87.8,-30.1c57.8,-20 115.4,-39.8 172.8,-59.3c57.3,-19.5 86.7,-29.3 88.2,-29.3c7.3,0 11,3.8 11,11.5l0,228.6l80.3,25.7z" id="svg_2" fill="#EDFFFF"/>
  </g>
 </g>
</svg>