<svg width="100" height="100" xmlns="http://www.w3.org/2000/svg">
 <g>
  <title>Layer 1</title>
  <ellipse stroke-width="0" ry="50" rx="50" id="svg_1" cy="50" cx="50" stroke="#000" fill="#ffffff"/>
  <path fill="#529D94" stroke="#000" d="m79.40067,39.07602l-6.73832,0c-0.65794,-4.15208 -3.96353,-8.54894 -7.76813,-12.292c-4.05888,-3.84222 -8.43561,-6.92219 -12.02726,-7.3436c-0.19706,-0.02479 -0.39413,-0.04338 -0.62933,-0.04648l-23.61271,0c-0.37824,0 -0.74694,0.14563 -1.01393,0.40901c-0.26381,0.25718 -0.41956,0.61971 -0.41956,0.99154l0,18.28153l-6.59211,0c-3.50901,0 -6.3569,2.77631 -6.3569,6.19713l0,27.49975l12.94901,0l0,6.44191c0,0.36563 0.14621,0.71267 0.41956,0.98534c0.27335,0.26338 0.63251,0.40591 1.01393,0.40591l42.73428,0c0.37506,0 0.7374,-0.14253 1.01075,-0.40591s0.43863,-0.61661 0.43863,-0.98534l0,-6.44191l12.94901,0l0,-27.49975c0,-3.42081 -2.84471,-6.19713 -6.3569,-6.19713l-0.00002,0zm-9.47178,38.73514l-39.87685,0l0,-9.68611l39.87685,0l0,9.68611zm0,-33.17012c0,-0.09296 0,-0.19521 -0.00954,-0.29746c-0.04768,-0.2107 -0.19706,-0.41831 -0.39413,-0.61971l-39.47318,0l0,-21.53502l22.20784,0l0,0.0031c0.96943,-0.05887 1.80218,0.87379 2.44423,3.00871c0.58166,2.02956 0.72787,4.67573 0.72787,6.51318c0.00318,1.34168 -0.06039,2.24646 -0.06039,2.24646l-0.1176,1.48111l1.52566,0.01549c0.00636,0 3.5249,0.04338 6.97988,0.80563c3.3183,0.70028 5.91192,2.09153 6.15984,3.6687c0.00954,0.13944 0.00954,0.28197 0.00954,0.41211l0,4.29771l-0.00002,-0.00001z" id="svg_3" stroke-width="5"/>
 </g>

</svg>