<svg id="evxi5sTFcY71" xmlns="http://www.w3.org/2000/svg" xmlns:xlink="http://www.w3.org/1999/xlink" viewBox="0 0 64 64" shape-rendering="geometricPrecision" text-rendering="geometricPrecision"><ellipse id="evxi5sTFcY72" rx="32" ry="32" transform="matrix(1 0 0 1 32 31.8847)" fill="rgb(79,93,115)" stroke="none" stroke-width="0"/><polygon id="evxi5sTFcY73" points="0,-17.572416 5.164403,-7.108191 16.712361,-5.430175 8.35618,2.715088 10.328807,14.216383 0,8.786208 -10.328807,14.216383 -8.35618,2.715088 -16.712361,-5.430175 -5.164403,-7.108191 0,-17.572416" transform="matrix(-0.594191 0.804324 -0.804324 -0.594191 17.4063 28.2715)" fill="rgb(255,255,0)" stroke="rgb(60,43,0)" stroke-width="0.5"/><polygon id="evxi5sTFcY74" points="0,-17.572416 5.164403,-7.108191 16.712361,-5.430175 8.35618,2.715088 10.328807,14.216383 0,8.786208 -10.328807,14.216383 -8.35618,2.715088 -16.712361,-5.430175 -5.164403,-7.108191 0,-17.572416" transform="matrix(0.557791 -0.829982 0.829982 0.557791 46.1326 27.7689)" fill="rgb(255,255,0)" stroke="rgb(60,43,0)" stroke-width="0.5"/><polygon id="evxi5sTFcY75" points="0,-17.572416 5.164403,-7.108191 16.712361,-5.430175 8.35618,2.715088 10.328807,14.216383 0,8.786208 -10.328807,14.216383 -8.35618,2.715088 -16.712361,-5.430175 -5.164403,-7.108191 0,-17.572416" transform="matrix(0.285036 -0.958517 0.958517 0.285036 32 18.0278)" fill="rgb(255,255,0)" fill-rule="evenodd" stroke="rgb(60,43,0)" stroke-width="0.5"/><g id="evxi5sTFcY76" transform="matrix(0.883276 0 0 0.883236 3.377626 15.349729)"><g id="evxi5sTFcY77" opacity="0.2"><path id="evxi5sTFcY78" d="M52,45C52,47.2,50.2,49,48,49L16,49C13.8,49,12,47.2,12,45L12,25C12,22.8,13.8,21,16,21L48,21C50.2,21,52,22.8,52,25L52,45Z" fill="rgb(35,31,32)" stroke="none" stroke-width="1"/></g><g id="evxi5sTFcY79"><path id="evxi5sTFcY710" d="M38,16L38,36L26,36L26,16L38,16M38,12L26,12C23.8,12,22,13.8,22,16L22,36C22,38.2,23.8,40,26,40L38,40C40.2,40,42,38.2,42,36L42,16C42,13.8,40.2,12,38,12L38,12Z" fill="rgb(224,153,94)" stroke="none" stroke-width="1"/></g><g id="evxi5sTFcY711"><g id="evxi5sTFcY712"><path id="evxi5sTFcY713" d="M12,28L12,43C12,45.2,13.8,47,16,47L48,47C50.2,47,52,45.2,52,43L52,28L12,28Z" fill="rgb(224,153,94)" stroke="none" stroke-width="1"/></g></g><g id="evxi5sTFcY714" opacity="0.2"><path id="evxi5sTFcY715" d="M52,25C52,22.8,50.2,21,48,21L16,21C13.8,21,12,22.8,12,25L12,30L52,30L52,25Z" fill="rgb(35,31,32)" stroke="none" stroke-width="1"/></g><g id="evxi5sTFcY716" opacity="0.2"><g id="evxi5sTFcY717"><path id="evxi5sTFcY718" d="M40,32C40,34.2,38.2,36,36,36L28,36C25.8,36,24,34.2,24,32L24,29C24,26.8,25.8,25,28,25L36,25C38.2,25,40,26.8,40,29L40,32Z" fill="rgb(35,31,32)" stroke="none" stroke-width="1"/></g></g><g id="evxi5sTFcY719"><path id="evxi5sTFcY720" d="M36,27L36,30L28,30L28,27L36,27M36,23L28,23C25.8,23,24,24.8,24,27L24,30C24,32.2,25.8,34,28,34L36,34C38.2,34,40,32.2,40,30L40,27C40,24.8,38.2,23,36,23L36,23Z" fill="rgb(245,207,135)" stroke="none" stroke-width="1"/></g><g id="evxi5sTFcY721"><path id="evxi5sTFcY722" d="M52,23C52,20.8,50.2,19,48,19L16,19C13.8,19,12,20.8,12,23L12,28L52,28L52,23Z" fill="rgb(224,153,94)" stroke="none" stroke-width="1"/></g></g></svg>